<svg xmlns="http://www.w3.org/2000/svg" width="56" height="34"><path id="https:_www.flaticon.com_free-icon_delivery-truck_259502_term_delivery_page_1_position_51" data-name="https://www.flaticon.com/free-icon/delivery-truck_259502#term=delivery&amp;page=1&amp;position=51" d="M842.444 3484.25l-3.231-1.91-1.846-8.06a4.624 4.624 0 00-4.5-3.64h-9.285v-1.5a1.128 1.128 0 00-1.116-1.14h-34.352a1.128 1.128 0 00-1.116 1.14v27.15a1.128 1.128 0 001.116 1.14h3.586a5.564 5.564 0 0010.949 0h22.584a5.564 5.564 0 0010.949 0h5.7a1.127 1.127 0 001.115-1.14v-11.05a1.154 1.154 0 00-.553-.99zm-45.271 15.47a3.426 3.426 0 113.356-3.43 3.4 3.4 0 01-3.356 3.43zm24.181-8.65h-10.062a1.14 1.14 0 000 2.28h10.062v1.8h-18.706a5.566 5.566 0 00-10.949 0h-2.47v-5.89h32.125v1.81zm0-19.29v15.2h-32.125v-16.7h32.125v1.5zm8.7 1.14h2.814a2.385 2.385 0 012.324 1.88l1.635 7.14h-6.773v-9.02zm.649 26.8a3.394 3.394 0 01-3.347-3.2 1.121 1.121 0 00.023-.23 1.2 1.2 0 00-.023-.23 3.359 3.359 0 113.35 3.66zm10.062-9.97h-2.122v-1.21h2.122v1.21zm0-3.49h-3.235a1.127 1.127 0 00-1.115 1.14v3.49a1.125 1.125 0 001.115 1.13h3.238v3.13h-4.587a5.566 5.566 0 00-10.949 0h-1.646v-22.23h4.24v10.15a1.127 1.127 0 001.115 1.14h9l2.832 1.68v.37zm-33.241 4.81h-.941a1.14 1.14 0 000 2.28h.941a1.14 1.14 0 00.003-2.28z" transform="translate(-787 -3468)" fill="#ff5353" fill-rule="evenodd"/></svg>