<svg xmlns="http://www.w3.org/2000/svg" width="35" height="41"><path id="https:_www.flaticon.com_free-icon_money-bag_126157_term_money_page_1_position_27" data-name="https://www.flaticon.com/free-icon/money-bag_126157#term=money&amp;page=1&amp;position=27" d="M522.869 3484.72h-2.33a1.54 1.54 0 010-3.08h4.1a1.025 1.025 0 000-2.05h-1.923v-1.42a1.017 1.017 0 10-2.033 0v1.42h-.144a3.59 3.59 0 000 7.18h2.33a1.54 1.54 0 010 3.08h-4.177a1.025 1.025 0 000 2.05h2v1.45a1.017 1.017 0 102.033 0v-1.45h.195a3.59 3.59 0 00-.051-7.18zm14.114-2.32a29.317 29.317 0 00-4.406-7.1 33.1 33.1 0 00-5.642-5.4l4.321-8.06a1.012 1.012 0 00-.186-1.21 5.055 5.055 0 00-3.626-1.64 8.465 8.465 0 00-3.287.87 6.081 6.081 0 01-2.068.62 1.274 1.274 0 01-.483-.08 15 15 0 00-5.066-1.2 6.835 6.835 0 00-5.1 2.4 1.036 1.036 0 00-.118 1.28l4.659 7.08a33.437 33.437 0 00-5.566 5.34 29.594 29.594 0 00-4.405 7.1 24.31 24.31 0 00-2.016 9.65 7.93 7.93 0 007.887 7.94h19.231a7.93 7.93 0 007.887-7.94 24.31 24.31 0 00-2.016-9.65zm-23.492-19.95a4.429 4.429 0 013.049-1.23 13.009 13.009 0 014.363 1.09 3.58 3.58 0 001.178.2 7.521 7.521 0 002.846-.77 6.785 6.785 0 012.508-.72 2.7 2.7 0 011.635.56l-4.07 7.61h-7.083zm17.621 35.49h-19.231a5.877 5.877 0 01-5.854-5.89 23.927 23.927 0 015.905-15.4 31.3 31.3 0 015.752-5.42h7.608a30.637 30.637 0 015.752 5.42 23.858 23.858 0 015.9 15.4 5.852 5.852 0 01-5.832 5.89z" transform="translate(-504 -3459)" fill="#ff5353" fill-rule="evenodd"/></svg>