<svg xmlns="http://www.w3.org/2000/svg" width="32" height="40"><path id="https:_www.flaticon.com_free-icon_bitcoin_1435902_term_secure_20payment_page_1_position_85" data-name="https://www.flaticon.com/free-icon/bitcoin_1435902#term=secure%20payment&amp;page=1&amp;position=85" d="M1400.15 3473.8v-1.33a1.15 1.15 0 10-2.3 0v1.33h-2.56a1.175 1.175 0 000 2.35h.08v7.7h-.08a1.17 1.17 0 000 2.34h2.56v1.34a1.15 1.15 0 102.3 0v-1.34h.09a3.538 3.538 0 002.56-1.08 3.7 3.7 0 00.09-5.11 3.728 3.728 0 00.98-2.51 3.684 3.684 0 00-1.07-2.61 3.578 3.578 0 00-2.56-1.08h-.09zm1.02 9.66a1.31 1.31 0 01-.93.39h-2.56v-2.68h2.56a1.336 1.336 0 011.32 1.34 1.356 1.356 0 01-.39.95zm.39-5.97a1.343 1.343 0 01-1.32 1.34h-2.56v-2.68h2.56a1.31 1.31 0 01.93.39 1.339 1.339 0 01.39.95zm12.65-12.41l-14.84-5.02a1.048 1.048 0 00-.74 0l-14.84 5.02a1.166 1.166 0 00-.79 1.11v11.22a24.123 24.123 0 003.95 13.25 23.625 23.625 0 0010.53 8.8l1.08.45a1.121 1.121 0 00.88 0l1.08-.45a23.625 23.625 0 0010.53-8.8 24.123 24.123 0 003.95-13.25v-11.22a1.166 1.166 0 00-.79-1.11zm-1.52 12.33a21.709 21.709 0 01-3.56 11.95 21.205 21.205 0 01-8.98 7.7v-4.51a1.15 1.15 0 10-2.3 0v4.51a21.205 21.205 0 01-8.98-7.7 21.709 21.709 0 01-3.56-11.95v-10.38l12.54-4.24v4.65a1.15 1.15 0 102.3 0v-4.65l12.54 4.24v10.38z" transform="translate(-1383 -3460)" fill="#ff5353" fill-rule="evenodd"/></svg>