<svg xmlns="http://www.w3.org/2000/svg" width="38" height="41"><path id="https:_www.flaticon.com_free-icon_headphones_126100_term_headphones_page_1_position_9" data-name="https://www.flaticon.com/free-icon/headphones_126100#term=headphones&amp;page=1&amp;position=9" d="M1120.82 3474.59v-1.58a14.5 14.5 0 00-3.7-9.88 12.656 12.656 0 00-9.47-4.13h-1.28a12.656 12.656 0 00-9.47 4.13 14.509 14.509 0 00-3.71 9.88v1.58a5.619 5.619 0 00-5.19 5.63v2.47a5.617 5.617 0 005.56 5.64h3.13a1.035 1.035 0 001.02-1.04v-11.69a1.033 1.033 0 00-1.02-1.03h-1.46v-1.56c0-6.81 4.79-11.95 11.13-11.95h1.28c6.35 0 11.13 5.14 11.13 11.95v1.56h-1.46a1.033 1.033 0 00-1.02 1.03v11.68a1.035 1.035 0 001.02 1.04h1.42c-.41 5.39-4.07 6.64-5.77 6.92a3.575 3.575 0 00-3.4-2.5h-2.55a3.631 3.631 0 000 7.26h2.56a3.588 3.588 0 003.44-2.67 9.5 9.5 0 003.46-1.2c1.84-1.09 4.02-3.32 4.31-7.82a5.616 5.616 0 005.22-5.63v-2.47a5.587 5.587 0 00-5.18-5.62zm-25.13 11.66h-2.11a3.551 3.551 0 01-3.53-3.57v-2.47a3.551 3.551 0 013.53-3.57h2.11v9.61zm13.88 11.68h-2.56a1.56 1.56 0 010-3.12h2.56a1.56 1.56 0 010 3.12zm14.4-15.25a3.549 3.549 0 01-3.52 3.57h-2.12v-9.61h2.12a3.549 3.549 0 013.52 3.57v2.47z" transform="translate(-1088 -3459)" fill="#ff5353" fill-rule="evenodd"/></svg>